# xmcd
#
# Track frame offsets:
#	150
#	15332
#	32935
#	50461
#	67063
#	81744
#	97369
#	112433
#	136924
#	157174
#	176882
#	189872
#	201860
#
# Disc length: 3081 seconds
#
# Revision: 1
# Processed by: cddbd v1.5.2PL0 Copyright (c) Steve Scherf et al.
# Submitted via: audiograbber 1.83.01
#
DISCID=c80c070d
DTITLE=Kellner - The Road Sessions
DYEAR=2011
DGENRE=Acoustic
TTITLE0=Quotation Marks
TTITLE1=The Glow
TTITLE2=Doomsday Waltz
TTITLE3=Baptistina
TTITLE4=By Now
TTITLE5=Sloop
TTITLE6=Goodfellas
TTITLE7=Tear it Out
TTITLE8=Holy Man
TTITLE9=Just Fine
TTITLE10=Wrong and Right
TTITLE11=Dracu(lalala)
TTITLE12=Story so Far
EXTD=
EXTT0=
EXTT1=
EXTT2=
EXTT3=
EXTT4=
EXTT5=
EXTT6=
EXTT7=
EXTT8=
EXTT9=
EXTT10=
EXTT11=
EXTT12=
PLAYORDER=
